{
  "source": "C:\\Users\\Peter\\Desktop\\stuff\\MIUN\\quantitative_research\\video_compression\\videos\\BVI-HD\\BVI-HD_CDVL_videos\\ORIG\\DiverFishAndRock_1920x1080_30fps.mp4",
  "output": "C:\\Users\\Peter\\Desktop\\stuff\\MIUN\\quantitative_research\\video_compression\\compressed_videos\\BVI-HD\\h264\\4\\DiverFishAndRock_1920x1080_30fps_h264.mp4",
  "codec": "h264",
  "ok": "Input #0, mov,mp4,m4a,3gp,3g2,mj2, from 'C:\\Users\\Peter\\Desktop\\stuff\\MIUN\\quantitative_research\\video_compression\\videos\\BVI-HD\\BVI-HD_CDVL_videos\\ORIG\\DiverFishAndRock_1920x1080_30fps.mp4':\n  Metadata:\n    major_brand     : isom\n    minor_version   : 512\n    compatible_brands: isomiso2avc1mp41\n    encoder         : Lavf54.28.101\n  Duration: 00:00:05.00, start: 0.000000, bitrate: 228854 kb/s\n  Stream #0:0[0x1](und): Video: h264 (High 4:4:4 Predictive) (avc1 / 0x31637661), yuv420p(progressive), 1920x1080, 228851 kb/s, 30 fps, 30 tbr, 30 tbn (default)\n    Metadata:\n      handler_name    : VideoHandler\n      vendor_id       : [0][0][0][0]\n[out#0/mp4 @ 000001ef4f5e9980] Codec AVOption b:a (set bitrate (in bits/s)) has not been used for any stream. The most likely reason is either wrong type (e.g. a video option with no video streams) or that it is a private option of some decoder which was not actually used for any stream.\nStream mapping:\n  Stream #0:0 -> #0:0 (h264 (native) -> h264 (libx264))\nPress [q] to stop, [?] for help\n[libx264 @ 000001ef514cb840] using cpu capabilities: MMX2 SSE2Fast SSSE3 SSE4.2 AVX FMA3 BMI2 AVX2\n[libx264 @ 000001ef514cb840] profile High, level 5.0, 4:2:0, 8-bit\n[libx264 @ 000001ef514cb840] 264 - core 165 r3222 b35605a - H.264/MPEG-4 AVC codec - Copyleft 2003-2025 - http://www.videolan.org/x264.html - options: cabac=1 ref=5 deblock=1:0:0 analyse=0x3:0x113 me=hex subme=8 psy=1 psy_rd=1.00:0.00 mixed_ref=1 me_range=16 chroma_me=1 trellis=2 8x8dct=1 cqm=0 deadzone=21,11 fast_pskip=1 chroma_qp_offset=-2 threads=18 lookahead_threads=3 sliced_threads=0 nr=0 decimate=1 interlaced=0 bluray_compat=0 constrained_intra=0 bframes=3 b_pyramid=2 b_adapt=1 b_bias=0 direct=3 weightb=1 open_gop=0 weightp=2 keyint=250 keyint_min=25 scenecut=40 intra_refresh=0 rc_lookahead=50 rc=cbr mbtree=1 bitrate=4000 ratetol=1.0 qcomp=0.60 qpmin=0 qpmax=69 qpstep=4 vbv_maxrate=4000 vbv_bufsize=4000 nal_hrd=none filler=0 ip_ratio=1.40 aq=1:1.00\nOutput #0, mp4, to 'C:\\Users\\Peter\\Desktop\\stuff\\MIUN\\quantitative_research\\video_compression\\compressed_videos\\BVI-HD\\h264\\4\\DiverFishAndRock_1920x1080_30fps_h264.mp4':\n  Metadata:\n    major_brand     : isom\n    minor_version   : 512\n    compatible_brands: isomiso2avc1mp41\n    encoder         : Lavf62.3.100\n  Stream #0:0(und): Video: h264 (avc1 / 0x31637661), yuv420p(tv, progressive), 1920x1080, q=2-31, 4000 kb/s, 30 fps, 15360 tbn (default)\n    Metadata:\n      encoder         : Lavc62.11.100 libx264\n      handler_name    : VideoHandler\n      vendor_id       : [0][0][0][0]\n    Side data:\n      cpb: bitrate max/min/avg: 4000000/0/4000000 buffer size: 4000000 vbv_delay: N/A\nframe=    0 fps=0.0 q=0.0 size=       0KiB time=N/A bitrate=N/A speed=N/A elapsed=0:00:00.52    \nframe=    0 fps=0.0 q=0.0 size=       0KiB time=N/A bitrate=N/A speed=N/A elapsed=0:00:01.14    \nframe=    0 fps=0.0 q=0.0 size=       0KiB time=N/A bitrate=N/A speed=N/A elapsed=0:00:01.69    \nframe=   17 fps=7.4 q=32.0 size=       0KiB time=00:00:00.50 bitrate=   0.8kbits/s speed=0.217x elapsed=0:00:02.30    \nframe=   37 fps= 13 q=32.0 size=     256KiB time=00:00:01.03 bitrate=2029.9kbits/s speed=0.353x elapsed=0:00:02.93    \nframe=   52 fps= 15 q=32.0 size=     512KiB time=00:00:01.56 bitrate=2677.5kbits/s speed=0.439x elapsed=0:00:03.56    \nframe=   75 fps= 18 q=32.0 size=     768KiB time=00:00:02.40 bitrate=2621.6kbits/s speed=0.581x elapsed=0:00:04.13    \nframe=  101 fps= 22 q=32.0 size=    1280KiB time=00:00:03.30 bitrate=3177.6kbits/s speed=0.708x elapsed=0:00:04.65    \nframe=  121 fps= 23 q=31.0 size=    1536KiB time=00:00:03.96 bitrate=3172.3kbits/s speed=0.765x elapsed=0:00:05.18    \nframe=  133 fps= 23 q=29.0 size=    1792KiB time=00:00:04.36 bitrate=3361.9kbits/s speed=0.761x elapsed=0:00:05.74    \n[mp4 @ 000001ef4f5e9a80] Starting second pass: moving the moov atom to the beginning of the file\n[out#0/mp4 @ 000001ef4f5e9980] video:2119KiB audio:0KiB subtitle:0KiB other streams:0KiB global headers:0KiB muxing overhead: 0.124008%\nframe=  150 fps= 25 q=-1.0 Lsize=    2122KiB time=00:00:04.93 bitrate=3523.3kbits/s speed=0.812x elapsed=0:00:06.07    \n[libx264 @ 000001ef514cb840] frame I:1     Avg QP:28.11  size: 58272\n[libx264 @ 000001ef514cb840] frame P:38    Avg QP:28.90  size: 28350\n[libx264 @ 000001ef514cb840] frame B:111   Avg QP:32.29  size:  9312\n[libx264 @ 000001ef514cb840] consecutive B-frames:  1.3%  0.0%  0.0% 98.7%\n[libx264 @ 000001ef514cb840] mb I  I16..4: 46.1% 49.8%  4.1%\n[libx264 @ 000001ef514cb840] mb P  I16..4:  1.8%  8.4%  0.6%  P16..4: 45.3%  9.1%  4.7%  0.0%  0.0%    skip:30.1%\n[libx264 @ 000001ef514cb840] mb B  I16..4:  0.1%  0.8%  0.1%  B16..8: 42.2%  3.4%  0.5%  direct: 1.4%  skip:51.4%  L0:41.1% L1:56.3% BI: 2.6%\n[libx264 @ 000001ef514cb840] 8x8 transform intra:74.4% inter:75.5%\n[libx264 @ 000001ef514cb840] direct mvs  spatial:91.0% temporal:9.0%\n[libx264 @ 000001ef514cb840] coded y,uvDC,uvAC intra: 55.6% 56.0% 16.2% inter: 7.4% 8.8% 0.1%\n[libx264 @ 000001ef514cb840] i16 v,h,dc,p: 10% 33%  9% 48%\n[libx264 @ 000001ef514cb840] i8 v,h,dc,ddl,ddr,vr,hd,vl,hu:  9%  8%  7%  8% 16% 13% 17%  9% 14%\n[libx264 @ 000001ef514cb840] i4 v,h,dc,ddl,ddr,vr,hd,vl,hu:  7%  8% 11%  7% 16% 12% 15%  8% 15%\n[libx264 @ 000001ef514cb840] i8c dc,h,v,p: 41% 30% 15% 14%\n[libx264 @ 000001ef514cb840] Weighted P-Frames: Y:13.2% UV:0.0%\n[libx264 @ 000001ef514cb840] ref P L0: 49.5% 22.2% 17.0%  5.5%  5.3%  0.6%\n[libx264 @ 000001ef514cb840] ref B L0: 86.5%  9.6%  3.1%  0.8%\n[libx264 @ 000001ef514cb840] ref B L1: 95.9%  4.1%\n[libx264 @ 000001ef514cb840] kb/s:3470.82\n",
  "seconds": 6.507582187652588,
  "probe_out": {}
}